<mxfile host="65bd71144e">
    <diagram id="1ULvW98KB3R_S4fn8ZdV" name="第 1 页">
        <mxGraphModel dx="1298" dy="774" grid="1" gridSize="10" guides="1" tooltips="1" connect="1" arrows="1" fold="1" page="1" pageScale="1" pageWidth="827" pageHeight="1169" math="0" shadow="0">
            <root>
                <mxCell id="0"/>
                <mxCell id="1" parent="0"/>
                <mxCell id="121" value="" style="group" vertex="1" connectable="0" parent="1">
                    <mxGeometry x="40" y="40" width="854" height="660" as="geometry"/>
                </mxCell>
                <mxCell id="115" value="" style="rounded=0;whiteSpace=wrap;html=1;fontSize=12;strokeColor=#666666;strokeWidth=1;fillColor=#f5f5f5;fontColor=#333333;" vertex="1" parent="121">
                    <mxGeometry width="854" height="164" as="geometry"/>
                </mxCell>
                <mxCell id="11" value="线程C" style="rounded=0;whiteSpace=wrap;html=1;" vertex="1" parent="121">
                    <mxGeometry x="339" y="74" width="120" height="60" as="geometry"/>
                </mxCell>
                <mxCell id="12" value="线程A" style="rounded=0;whiteSpace=wrap;html=1;fillColor=#cdeb8b;strokeColor=#36393d;" vertex="1" parent="121">
                    <mxGeometry x="39" y="74" width="120" height="60" as="geometry"/>
                </mxCell>
                <mxCell id="13" value="线程B" style="rounded=0;whiteSpace=wrap;html=1;" vertex="1" parent="121">
                    <mxGeometry x="190" y="74" width="120" height="60" as="geometry"/>
                </mxCell>
                <mxCell id="16" value="节点A-n" style="rounded=0;whiteSpace=wrap;html=1;" vertex="1" parent="121">
                    <mxGeometry x="724" y="234" width="120" height="60" as="geometry"/>
                </mxCell>
                <mxCell id="17" value="节点A-a" style="rounded=0;whiteSpace=wrap;html=1;fillColor=#cdeb8b;strokeColor=#36393d;" vertex="1" parent="121">
                    <mxGeometry x="39" y="234" width="120" height="60" as="geometry"/>
                </mxCell>
                <mxCell id="84" value="unlock" style="edgeStyle=orthogonalEdgeStyle;html=1;exitX=0.5;exitY=1;exitDx=0;exitDy=0;entryX=0;entryY=0.5;entryDx=0;entryDy=0;fontSize=12;strokeColor=#00CC00;strokeWidth=4;" edge="1" parent="121" source="18" target="16">
                    <mxGeometry x="-0.1409" relative="1" as="geometry">
                        <Array as="points">
                            <mxPoint x="515" y="434"/>
                            <mxPoint x="684" y="434"/>
                            <mxPoint x="684" y="264"/>
                        </Array>
                        <mxPoint as="offset"/>
                    </mxGeometry>
                </mxCell>
                <mxCell id="18" value="节点A-b" style="rounded=0;whiteSpace=wrap;html=1;" vertex="1" parent="121">
                    <mxGeometry x="455" y="234" width="120" height="60" as="geometry"/>
                </mxCell>
                <mxCell id="19" style="edgeStyle=orthogonalEdgeStyle;html=1;exitX=0.5;exitY=1;exitDx=0;exitDy=0;entryX=0.5;entryY=0;entryDx=0;entryDy=0;strokeColor=#00CC00;strokeWidth=5;" edge="1" parent="121" source="12" target="17">
                    <mxGeometry relative="1" as="geometry"/>
                </mxCell>
                <mxCell id="93" style="edgeStyle=orthogonalEdgeStyle;html=1;entryX=0;entryY=0.5;entryDx=0;entryDy=0;fontSize=12;strokeColor=#00CC00;strokeWidth=4;" edge="1" parent="121" target="18">
                    <mxGeometry relative="1" as="geometry">
                        <mxPoint x="415" y="264" as="sourcePoint"/>
                    </mxGeometry>
                </mxCell>
                <mxCell id="82" value="线程终止" style="ellipse;whiteSpace=wrap;html=1;fillColor=#f5f5f5;strokeColor=#666666;rounded=0;fontColor=#333333;" vertex="1" parent="121">
                    <mxGeometry x="30" y="570" width="120" height="60" as="geometry"/>
                </mxCell>
                <mxCell id="89" value="状态" style="rhombus;whiteSpace=wrap;html=1;fillColor=#cdeb8b;strokeColor=#36393d;rounded=0;" vertex="1" parent="121">
                    <mxGeometry x="59" y="390" width="80" height="80" as="geometry"/>
                </mxCell>
                <mxCell id="90" value="" style="edgeStyle=orthogonalEdgeStyle;html=1;fontSize=12;strokeColor=#00CC00;strokeWidth=4;" edge="1" parent="121" source="17" target="89">
                    <mxGeometry relative="1" as="geometry"/>
                </mxCell>
                <mxCell id="98" value="线程终止" style="ellipse;whiteSpace=wrap;html=1;fillColor=#f5f5f5;strokeColor=#666666;rounded=0;fontColor=#333333;" vertex="1" parent="121">
                    <mxGeometry x="724" y="425" width="120" height="60" as="geometry"/>
                </mxCell>
                <mxCell id="99" style="edgeStyle=orthogonalEdgeStyle;html=1;exitX=0.5;exitY=1;exitDx=0;exitDy=0;fontSize=35;strokeColor=#00CC00;strokeWidth=4;" edge="1" parent="121" source="16" target="98">
                    <mxGeometry relative="1" as="geometry"/>
                </mxCell>
                <mxCell id="100" value="&lt;p style=&quot;line-height: 0&quot;&gt;...&lt;/p&gt;" style="text;html=1;strokeColor=none;fillColor=none;align=center;verticalAlign=middle;whiteSpace=wrap;rounded=0;fontSize=35;" vertex="1" parent="121">
                    <mxGeometry x="603" y="240" width="60" height="30" as="geometry"/>
                </mxCell>
                <mxCell id="101" value="" style="group" vertex="1" connectable="0" parent="121">
                    <mxGeometry x="194" y="204" width="220" height="120" as="geometry"/>
                </mxCell>
                <mxCell id="56" value="" style="rounded=0;whiteSpace=wrap;html=1;fillColor=#f8cecc;strokeColor=#b85450;" vertex="1" parent="101">
                    <mxGeometry width="220" height="120" as="geometry"/>
                </mxCell>
                <mxCell id="58" value="&amp;nbsp; &amp;nbsp; &amp;nbsp; &amp;nbsp; 事件" style="html=1;dashed=0;whitespace=wrap;shape=mxgraph.dfd.externalEntity" vertex="1" parent="101">
                    <mxGeometry x="14" y="21" width="90" height="50" as="geometry"/>
                </mxCell>
                <mxCell id="59" value="Id" style="autosize=1;part=1;resizable=0;strokeColor=inherit;fillColor=inherit;gradientColor=inherit;" vertex="1" parent="58">
                    <mxGeometry width="20" height="20" relative="1" as="geometry">
                        <mxPoint x="15" y="15" as="offset"/>
                    </mxGeometry>
                </mxCell>
                <mxCell id="60" value="&amp;nbsp; &amp;nbsp; &amp;nbsp; &amp;nbsp; 事件" style="html=1;dashed=0;whitespace=wrap;shape=mxgraph.dfd.externalEntity" vertex="1" parent="101">
                    <mxGeometry x="117" y="21" width="90" height="50" as="geometry"/>
                </mxCell>
                <mxCell id="61" value="Id" style="autosize=1;part=1;resizable=0;strokeColor=inherit;fillColor=inherit;gradientColor=inherit;" vertex="1" parent="60">
                    <mxGeometry width="20" height="20" relative="1" as="geometry">
                        <mxPoint x="15" y="15" as="offset"/>
                    </mxGeometry>
                </mxCell>
                <mxCell id="67" value="..." style="text;html=1;strokeColor=none;fillColor=none;align=center;verticalAlign=middle;whiteSpace=wrap;rounded=0;strokeWidth=7;fontSize=28;" vertex="1" parent="101">
                    <mxGeometry x="79" y="71" width="60" height="30" as="geometry"/>
                </mxCell>
                <mxCell id="91" style="edgeStyle=orthogonalEdgeStyle;html=1;exitX=1;exitY=0.5;exitDx=0;exitDy=0;fontSize=12;strokeColor=#00CC00;strokeWidth=4;" edge="1" parent="121" source="89" target="56">
                    <mxGeometry relative="1" as="geometry">
                        <mxPoint x="259" y="374" as="targetPoint"/>
                    </mxGeometry>
                </mxCell>
                <mxCell id="110" value="unlock" style="edgeLabel;html=1;align=center;verticalAlign=middle;resizable=0;points=[];fontSize=12;" vertex="1" connectable="0" parent="91">
                    <mxGeometry x="-0.214" y="-4" relative="1" as="geometry">
                        <mxPoint x="-12" y="-4" as="offset"/>
                    </mxGeometry>
                </mxCell>
                <mxCell id="102" value="" style="group" vertex="1" connectable="0" parent="121">
                    <mxGeometry x="190" y="540" width="220" height="120" as="geometry"/>
                </mxCell>
                <mxCell id="103" value="" style="rounded=0;whiteSpace=wrap;html=1;fillColor=#f8cecc;strokeColor=#b85450;" vertex="1" parent="102">
                    <mxGeometry width="220" height="120" as="geometry"/>
                </mxCell>
                <mxCell id="104" value="&amp;nbsp; &amp;nbsp; &amp;nbsp; &amp;nbsp; 事件" style="html=1;dashed=0;whitespace=wrap;shape=mxgraph.dfd.externalEntity" vertex="1" parent="102">
                    <mxGeometry x="14" y="21" width="90" height="50" as="geometry"/>
                </mxCell>
                <mxCell id="105" value="Id" style="autosize=1;part=1;resizable=0;strokeColor=inherit;fillColor=inherit;gradientColor=inherit;" vertex="1" parent="104">
                    <mxGeometry width="20" height="20" relative="1" as="geometry">
                        <mxPoint x="15" y="15" as="offset"/>
                    </mxGeometry>
                </mxCell>
                <mxCell id="106" value="&amp;nbsp; &amp;nbsp; &amp;nbsp; &amp;nbsp; 事件" style="html=1;dashed=0;whitespace=wrap;shape=mxgraph.dfd.externalEntity" vertex="1" parent="102">
                    <mxGeometry x="117" y="21" width="90" height="50" as="geometry"/>
                </mxCell>
                <mxCell id="107" value="Id" style="autosize=1;part=1;resizable=0;strokeColor=inherit;fillColor=inherit;gradientColor=inherit;" vertex="1" parent="106">
                    <mxGeometry width="20" height="20" relative="1" as="geometry">
                        <mxPoint x="15" y="15" as="offset"/>
                    </mxGeometry>
                </mxCell>
                <mxCell id="108" value="..." style="text;html=1;strokeColor=none;fillColor=none;align=center;verticalAlign=middle;whiteSpace=wrap;rounded=0;strokeWidth=7;fontSize=28;" vertex="1" parent="102">
                    <mxGeometry x="79" y="71" width="60" height="30" as="geometry"/>
                </mxCell>
                <mxCell id="109" value="" style="edgeStyle=orthogonalEdgeStyle;html=1;fontSize=35;strokeColor=#000000;strokeWidth=1;" edge="1" parent="121" source="103" target="82">
                    <mxGeometry relative="1" as="geometry"/>
                </mxCell>
                <mxCell id="117" value="&lt;p style=&quot;line-height: 0&quot;&gt;+ ...&lt;/p&gt;" style="text;html=1;strokeColor=none;fillColor=none;align=center;verticalAlign=middle;whiteSpace=wrap;rounded=0;fontSize=35;fontColor=#999999;" vertex="1" parent="121">
                    <mxGeometry x="481" y="88" width="105" height="30" as="geometry"/>
                </mxCell>
                <mxCell id="118" value="Total Contrl Hub" style="text;html=1;strokeColor=none;fillColor=none;align=center;verticalAlign=middle;whiteSpace=wrap;rounded=0;fontSize=23;fontColor=#999999;" vertex="1" parent="121">
                    <mxGeometry x="339" y="20" width="180" height="28" as="geometry"/>
                </mxCell>
                <mxCell id="92" style="edgeStyle=orthogonalEdgeStyle;html=1;exitX=0.5;exitY=1;exitDx=0;exitDy=0;entryX=0.5;entryY=0;entryDx=0;entryDy=0;fontSize=12;strokeColor=#000000;strokeWidth=1;" edge="1" parent="121" source="89" target="103">
                    <mxGeometry relative="1" as="geometry">
                        <mxPoint x="288.5" y="540" as="targetPoint"/>
                    </mxGeometry>
                </mxCell>
                <mxCell id="111" value="locked" style="edgeLabel;html=1;align=center;verticalAlign=middle;resizable=0;points=[];fontSize=12;" vertex="1" connectable="0" parent="92">
                    <mxGeometry x="0.1561" y="-4" relative="1" as="geometry">
                        <mxPoint x="14" y="-5" as="offset"/>
                    </mxGeometry>
                </mxCell>
            </root>
        </mxGraphModel>
    </diagram>
</mxfile>